<svg xmlns="http://www.w3.org/2000/svg" viewBox="0 0 173.66 53.39"><defs><style>.cls-1{fill:#fff;}.cls-2{fill:#49abe1;}</style></defs><title>Element 3</title><g id="Ebene_2" data-name="Ebene 2"><g id="Ebene_1-2" data-name="Ebene 1"><path class="cls-1" d="M37.4.47h0A4.44,4.44,0,0,0,33,4.91V19.26c0,.08,0,.16,0,.25s0,.16,0,.25v3.35c0,.08,0,.16,0,.25s0,.16,0,.25v6.19c0,.08,0,.16,0,.25s0,.16,0,.25v3.35c0,.08,0,.16,0,.25s0,.16,0,.25V48.47a4.44,4.44,0,0,0,4.44,4.44h0a4.44,4.44,0,0,0,4.44-4.44V34.12c0-.08,0-.16,0-.25s0-.16,0-.25V30.28c0-.08,0-.16,0-.25s0-.16,0-.25V23.6c0-.08,0-.16,0-.25s0-.16,0-.25V19.76c0-.08,0-.16,0-.25s0-.16,0-.25V4.91A4.44,4.44,0,0,0,37.4.47Z"/><path class="cls-1" d="M169.22.47h0a4.44,4.44,0,0,0-4.44,4.44V19.26c0,.08,0,.16,0,.25s0,.16,0,.25v3.35c0,.08,0,.16,0,.25s0,.16,0,.25v6.19c0,.08,0,.16,0,.25s0,.16,0,.25v3.35c0,.08,0,.16,0,.25s0,.16,0,.25V48.47a4.44,4.44,0,0,0,4.44,4.44h0a4.44,4.44,0,0,0,4.44-4.44V34.12c0-.08,0-.16,0-.25s0-.16,0-.25V30.28c0-.08,0-.16,0-.25s0-.16,0-.25V23.6c0-.08,0-.16,0-.25s0-.16,0-.25V19.76c0-.08,0-.16,0-.25s0-.16,0-.25V4.91A4.44,4.44,0,0,0,169.22.47Z"/><path class="cls-1" d="M147.25,6.25h0a4.44,4.44,0,0,0-4.44,4.44V17c0,.08,0,.16,0,.25s0,.16,0,.25v1.59c0,.08,0,.16,0,.25s0,.16,0,.25V33.78c0,.08,0,.16,0,.25s0,.16,0,.25v1.59c0,.08,0,.16,0,.25s0,.16,0,.25V42.7a4.44,4.44,0,0,0,4.44,4.44h0a4.44,4.44,0,0,0,4.44-4.44V36.36c0-.08,0-.16,0-.25s0-.16,0-.25V34.27c0-.08,0-.16,0-.25s0-.16,0-.25V19.61c0-.08,0-.16,0-.25s0-.16,0-.25V17.52c0-.08,0-.16,0-.25s0-.16,0-.25V10.69A4.44,4.44,0,0,0,147.25,6.25Z"/><path class="cls-1" d="M158.25,6.25h0a4.44,4.44,0,0,0-4.44,4.44V17c0,.08,0,.16,0,.25s0,.16,0,.25v1.59c0,.08,0,.16,0,.25s0,.16,0,.25V33.78c0,.08,0,.16,0,.25s0,.16,0,.25v1.59c0,.08,0,.16,0,.25s0,.16,0,.25V42.7a4.44,4.44,0,0,0,4.44,4.44h0a4.44,4.44,0,0,0,4.44-4.44V36.36c0-.08,0-.16,0-.25s0-.16,0-.25V34.27c0-.08,0-.16,0-.25s0-.16,0-.25V19.61c0-.08,0-.16,0-.25s0-.16,0-.25V17.52c0-.08,0-.16,0-.25s0-.16,0-.25V10.69A4.44,4.44,0,0,0,158.25,6.25Z"/><path class="cls-1" d="M136.26,6.25h0a4.44,4.44,0,0,0-4.44,4.44V17c0,.08,0,.16,0,.25s0,.16,0,.25v1.59c0,.08,0,.16,0,.25s0,.16,0,.25V33.78c0,.08,0,.16,0,.25s0,.16,0,.25v1.59c0,.08,0,.16,0,.25s0,.16,0,.25V42.7a4.44,4.44,0,0,0,4.44,4.44h0a4.44,4.44,0,0,0,4.44-4.44V36.36c0-.08,0-.16,0-.25s0-.16,0-.25V34.27c0-.08,0-.16,0-.25s0-.16,0-.25V19.61c0-.08,0-.16,0-.25s0-.16,0-.25V17.52c0-.08,0-.16,0-.25s0-.16,0-.25V10.69A4.44,4.44,0,0,0,136.26,6.25Z"/><path class="cls-2" d="M125.28,6.25h0a4.44,4.44,0,0,0-4.44,4.44V17c0,.08,0,.16,0,.25s0,.16,0,.25v1.59c0,.08,0,.16,0,.25s0,.16,0,.25V33.78c0,.08,0,.16,0,.25s0,.16,0,.25v1.59c0,.08,0,.16,0,.25s0,.16,0,.25V42.7a4.44,4.44,0,0,0,4.44,4.44h0a4.44,4.44,0,0,0,4.44-4.44V36.36c0-.08,0-.16,0-.25s0-.16,0-.25V34.27c0-.08,0-.16,0-.25s0-.16,0-.25V19.61c0-.08,0-.16,0-.25s0-.16,0-.25V17.52c0-.08,0-.16,0-.25s0-.16,0-.25V10.69A4.44,4.44,0,0,0,125.28,6.25Z"/><path class="cls-2" d="M114.29,6.25h0a4.44,4.44,0,0,0-4.44,4.44V17c0,.08,0,.16,0,.25s0,.16,0,.25v1.59c0,.08,0,.16,0,.25s0,.16,0,.25V33.78c0,.08,0,.16,0,.25s0,.16,0,.25v1.59c0,.08,0,.16,0,.25s0,.16,0,.25V42.7a4.44,4.44,0,0,0,4.44,4.44h0a4.44,4.44,0,0,0,4.44-4.44V36.36c0-.08,0-.16,0-.25s0-.16,0-.25V34.27c0-.08,0-.16,0-.25s0-.16,0-.25V19.61c0-.08,0-.16,0-.25s0-.16,0-.25V17.52c0-.08,0-.16,0-.25s0-.16,0-.25V10.69A4.44,4.44,0,0,0,114.29,6.25Z"/><path class="cls-2" d="M92.32,6.25h0a4.44,4.44,0,0,0-4.44,4.44V17c0,.08,0,.16,0,.25s0,.16,0,.25v1.59c0,.08,0,.16,0,.25s0,.16,0,.25V33.78c0,.08,0,.16,0,.25s0,.16,0,.25v1.59c0,.08,0,.16,0,.25s0,.16,0,.25V42.7a4.44,4.44,0,0,0,4.44,4.44h0a4.44,4.44,0,0,0,4.44-4.44V36.36c0-.08,0-.16,0-.25s0-.16,0-.25V34.27c0-.08,0-.16,0-.25s0-.16,0-.25V19.61c0-.08,0-.16,0-.25s0-.16,0-.25V17.52c0-.08,0-.16,0-.25s0-.16,0-.25V10.69A4.44,4.44,0,0,0,92.32,6.25Z"/><path class="cls-1" d="M59.37,6.25h0a4.44,4.44,0,0,0-4.44,4.44V17c0,.08,0,.16,0,.25s0,.16,0,.25v1.59c0,.08,0,.16,0,.25s0,.16,0,.25V33.78c0,.08,0,.16,0,.25s0,.16,0,.25v1.59c0,.08,0,.16,0,.25s0,.16,0,.25V42.7a4.44,4.44,0,0,0,4.44,4.44h0a4.44,4.44,0,0,0,4.44-4.44V36.36c0-.08,0-.16,0-.25s0-.16,0-.25V34.27c0-.08,0-.16,0-.25s0-.16,0-.25V19.61c0-.08,0-.16,0-.25s0-.16,0-.25V17.52c0-.08,0-.16,0-.25s0-.16,0-.25V10.69A4.44,4.44,0,0,0,59.37,6.25Z"/><path class="cls-1" d="M48.38,6.25h0a4.44,4.44,0,0,0-4.44,4.44V17c0,.08,0,.16,0,.25s0,.16,0,.25v1.59c0,.08,0,.16,0,.25s0,.16,0,.25V33.78c0,.08,0,.16,0,.25s0,.16,0,.25v1.59c0,.08,0,.16,0,.25s0,.16,0,.25V42.7a4.44,4.44,0,0,0,4.44,4.44h0a4.44,4.44,0,0,0,4.44-4.44V36.36c0-.08,0-.16,0-.25s0-.16,0-.25V34.27c0-.08,0-.16,0-.25s0-.16,0-.25V19.61c0-.08,0-.16,0-.25s0-.16,0-.25V17.52c0-.08,0-.16,0-.25s0-.16,0-.25V10.69A4.44,4.44,0,0,0,48.38,6.25Z"/><path class="cls-1" d="M15.43,6.25h0A4.44,4.44,0,0,0,11,10.69V17c0,.08,0,.16,0,.25s0,.16,0,.25v1.59c0,.08,0,.16,0,.25s0,.16,0,.25V33.78c0,.08,0,.16,0,.25s0,.16,0,.25v1.59c0,.08,0,.16,0,.25s0,.16,0,.25V42.7a4.44,4.44,0,0,0,4.44,4.44h0a4.44,4.44,0,0,0,4.44-4.44V36.36c0-.08,0-.16,0-.25s0-.16,0-.25V34.27c0-.08,0-.16,0-.25s0-.16,0-.25V19.61c0-.08,0-.16,0-.25s0-.16,0-.25V17.52c0-.08,0-.16,0-.25s0-.16,0-.25V10.69A4.44,4.44,0,0,0,15.43,6.25Z"/><path class="cls-1" d="M4.44,6.25h0A4.44,4.44,0,0,0,0,10.69V17c0,.08,0,.16,0,.25s0,.16,0,.25v1.59c0,.08,0,.16,0,.25s0,.16,0,.25V33.78c0,.08,0,.16,0,.25s0,.16,0,.25v1.59c0,.08,0,.16,0,.25s0,.16,0,.25V42.7a4.44,4.44,0,0,0,4.44,4.44h0A4.44,4.44,0,0,0,8.88,42.7V36.36c0-.08,0-.16,0-.25s0-.16,0-.25V34.27c0-.08,0-.16,0-.25s0-.16,0-.25V19.61c0-.08,0-.16,0-.25s0-.16,0-.25V17.52c0-.08,0-.16,0-.25s0-.16,0-.25V10.69A4.44,4.44,0,0,0,4.44,6.25Z"/><path class="cls-1" d="M81.34,1.5h0A4.44,4.44,0,0,0,76.9,5.94V19.28c0,.08,0,.16,0,.25s0,.16,0,.25v2.34c0,.08,0,.16,0,.25s0,.16,0,.25v8.17c0,.08,0,.16,0,.25s0,.16,0,.25v2.34c0,.08,0,.16,0,.25s0,.16,0,.25V47.45a4.44,4.44,0,0,0,4.44,4.44h0a4.44,4.44,0,0,0,4.44-4.44V34.11c0-.08,0-.16,0-.25s0-.16,0-.25V31.27c0-.08,0-.16,0-.25s0-.16,0-.25V22.61c0-.08,0-.16,0-.25s0-.16,0-.25V19.77c0-.08,0-.16,0-.25s0-.16,0-.25V5.94A4.44,4.44,0,0,0,81.34,1.5Z"/><path class="cls-2" d="M103.31,0h0a4.44,4.44,0,0,0-4.44,4.44V18.95c0,.08,0,.16,0,.25s0,.16,0,.25v3.51c0,.08,0,.16,0,.25s0,.16,0,.25v6.51c0,.08,0,.16,0,.25s0,.16,0,.25v3.51c0,.08,0,.16,0,.25s0,.16,0,.25V48.95a4.44,4.44,0,0,0,4.44,4.44h0a4.44,4.44,0,0,0,4.44-4.44V34.44c0-.08,0-.16,0-.25s0-.16,0-.25V30.44c0-.08,0-.16,0-.25s0-.16,0-.25V23.44c0-.08,0-.16,0-.25s0-.16,0-.25V19.44c0-.08,0-.16,0-.25s0-.16,0-.25V4.44A4.44,4.44,0,0,0,103.31,0Z"/><path class="cls-1" d="M70.35,0h0a4.44,4.44,0,0,0-4.44,4.44V18.95c0,.08,0,.16,0,.25s0,.16,0,.25v3.51c0,.08,0,.16,0,.25s0,.16,0,.25v6.51c0,.08,0,.16,0,.25s0,.16,0,.25v3.51c0,.08,0,.16,0,.25s0,.16,0,.25V48.95a4.44,4.44,0,0,0,4.44,4.44h0a4.44,4.44,0,0,0,4.44-4.44V34.44c0-.08,0-.16,0-.25s0-.16,0-.25V30.44c0-.08,0-.16,0-.25s0-.16,0-.25V23.44c0-.08,0-.16,0-.25s0-.16,0-.25V19.44c0-.08,0-.16,0-.25s0-.16,0-.25V4.44A4.44,4.44,0,0,0,70.35,0Z"/><path class="cls-1" d="M26.41,0h0A4.44,4.44,0,0,0,22,4.44V18.95c0,.08,0,.16,0,.25s0,.16,0,.25v3.51c0,.08,0,.16,0,.25s0,.16,0,.25v6.51c0,.08,0,.16,0,.25s0,.16,0,.25v3.51c0,.08,0,.16,0,.25s0,.16,0,.25V48.95a4.44,4.44,0,0,0,4.44,4.44h0a4.44,4.44,0,0,0,4.44-4.44V34.44c0-.08,0-.16,0-.25s0-.16,0-.25V30.44c0-.08,0-.16,0-.25s0-.16,0-.25V23.44c0-.08,0-.16,0-.25s0-.16,0-.25V19.44c0-.08,0-.16,0-.25s0-.16,0-.25V4.44A4.44,4.44,0,0,0,26.41,0Z"/></g></g></svg>